<svg xmlns="http://www.w3.org/2000/svg" width="512" height="512" viewBox="0 0 512 512">
  <rect width="512" height="512" rx="64" fill="#050510"/>
  <rect x="40" y="256" width="432" height="60" rx="8" fill="#1a1a2a"/>
  <rect x="40" y="246" width="432" height="10" fill="#333"/>
  <g transform="translate(156,104)">
    <animateTransform attributeName="transform" type="translate" values="156,104;156,96;156,104" dur="1.8s" repeatCount="indefinite"/>
    <ellipse cx="100" cy="100" rx="90" ry="15" fill="rgba(0,0,0,0.4)"/>
    <circle cx="40" cy="90" r="24" fill="#111" stroke="#555" stroke-width="4"/>
    <circle cx="40" cy="90" r="12" fill="#888"/>
    <circle cx="160" cy="90" r="24" fill="#111" stroke="#555" stroke-width="4"/>
    <circle cx="160" cy="90" r="12" fill="#888"/>
    <rect x="8" y="40" width="184" height="44" rx="12" fill="#cc2200"/>
    <rect x="36" y="4" width="124" height="40" rx="16" fill="#dd3311"/>
    <rect x="52" y="10" width="92" height="30" rx="6" fill="rgba(100,200,255,0.5)"/>
    <rect x="178" y="46" width="12" height="16" rx="3" fill="#ffffaa"/>
    <rect x="6" y="46" width="10" height="16" rx="3" fill="#ff2200"/>
  </g>
  <text x="256" y="380" text-anchor="middle" font-family="sans-serif" font-size="36" font-weight="900" fill="#00d4ff" letter-spacing="4">TURBO RACER</text>
  <text x="256" y="420" text-anchor="middle" font-family="sans-serif" font-size="18" fill="#00ff88" letter-spacing="6">3D RACING</text>
</svg>
